<?xml version="1.0" encoding="utf-8"?>
<!-- Generator: Adobe Illustrator 22.0.0, SVG Export Plug-In . SVG Version: 6.00 Build 0)  -->
<svg version="1.1" id="Layer_1" xmlns="http://www.w3.org/2000/svg" xmlns:xlink="http://www.w3.org/1999/xlink" x="0px" y="0px"
	 viewBox="0 0 1024 768" style="enable-background:new 0 0 1024 768;" xml:space="preserve">
<style type="text/css">
	.st0{fill:#FFFFFF;stroke:#B90005;stroke-width:4;stroke-miterlimit:10;}
	.st1{fill:#FFFFFF;stroke:#00B91F;stroke-width:4;stroke-miterlimit:10;}
	.st2{fill:#FFFFFF;stroke:#B1B900;stroke-width:4;stroke-miterlimit:10;}
	.st3{fill:#FFFFFF;stroke:#0F00B9;stroke-width:4;stroke-miterlimit:10;}
	.st4{fill:#FFFFFF;stroke:#170700;stroke-width:4;stroke-miterlimit:10;}
	.st5{font-family:'Mistral';}
	.st6{font-size:79.6743px;}
</style>
<path class="st0" d="M630.5,278c-37.7,49.4-73.1,84.3-99.1,107.5c-28.5,25.4-46.9,37.7-70.1,38c-23,0.3-40.9-11.2-59.1-25
	c-29.1-22-72.3-59.5-119.2-120.5"/>
<path class="st1" d="M205.5,316.5c56.5,37.6,96.5,72.9,123,98.9c29,28.4,43.1,46.8,43.5,69.9c0.4,23-12.9,40.8-28.6,58.9
	c-25.1,29-68,72.1-137.9,118.8"/>
<path class="st2" d="M289.2,676.1c37.7-45.5,73-77.6,99-99c28.5-23.4,46.8-34.7,70-35c23-0.3,40.8,10.3,59,23
	c29.1,20.2,72.2,54.8,119,111"/>
<path class="st3" d="M743,657c-67.8-37.7-115.9-73-147.8-99c-34.9-28.5-51.8-46.8-52.2-70c-0.5-23,15.4-40.8,34.3-59
	c30.2-29.1,81.7-72.2,165.7-119"/>
<polygon class="st4" points="457,198 325,198 235,198 302,278 625,278 691,198 "/>
<path class="st4" d="M430,160c-86.2,17.7-175.3,16.9-176,10c-1.1-10.3,191.9-49.2,272-22c17.4,5.9,38.9,10.6,82,20
	c25.9,5.7,41,8.3,43,4c2.8-6.1-22.3-22.9-24-24c-51.6-34.2-122.2-13.7-272,3c-64.2,7.1-81.8,6.8-83,2c-1.6-6.1,23.3-21,50-27
	c47.2-10.6,67.4,13.8,124,16c55.1,2.1,94.5-18.8,95-17C541.6,127,492.5,147.1,430,160z"/>
<path class="st4" d="M440,158c-0.2,6.1-8.2,10.4-11,12c-32.8,17.9-155.2,21.6-155,18c0.1-2,34.9,6.5,98-3c56.5-8.5,63.5-20.5,107-22
	c22.6-0.8,45.4,3.5,91,12c74.8,14,105.1,26.7,117,12c6.4-7.9,7.1-23.1,0-31c-17.8-19.9-71.7,21.9-173,30c-18.8,1.5-32.2,1.3-49,1
	c-124.3-2.1-180.1-37.9-228-5c-12,8.2-24.3,21.3-27,19c-3.2-2.7,7.5-25.8,22-39c28.5-25.9,63.7-6.4,155,0c98.6,6.9,133-10.6,166,19
	c10,9,26.9,28.6,39.5,23.9c8.9-3.4,5.6-15.3,14.5-22.9c21.3-17.9,67.6,26.9,99,9c13.7-7.8,22.3-26.4,18-33c-2.7-4.1-9.7-2.6-18-3
	c-28.6-1.4-39.4-23.7-59-30c-26.7-8.5-41.1,22-77,33c-69.3,21.3-112.9-62.2-214-55c-41.1,2.9-67.6,19.2-67,22c1.1,4.9,89.8-5,133,16
	C426.8,143.3,440.3,149.9,440,158z"/>
<text transform="matrix(1.4913 0 0 1 304 264.7129)" class="st5 st6">WARTEG</text>
</svg>
